<svg width="156" height="149" viewBox="0 0 156 149" fill="none" xmlns="http://www.w3.org/2000/svg">
<g filter="url(#filter0_f)">
<circle cx="84.1938" cy="76.1948" r="41.8071" fill="#E4E4E4"/>
</g>
<g filter="url(#filter1_f)">
<circle cx="71.8071" cy="71.8071" r="41.8071" fill="white"/>
</g>
<circle cx="77.8071" cy="73.8071" r="41.3071" fill="url(#paint0_linear)" stroke="#F9F9F9"/>
<rect x="86.9863" y="73.1348" width="2" height="18.0035" rx="1" transform="rotate(90 86.9863 73.1348)" fill="#A9A5A9"/>
<path d="M73.4472 68.4512C73.8377 68.0607 74.4709 68.0607 74.8614 68.4512C75.2519 68.8418 75.2519 69.4749 74.8614 69.8655L69.2045 75.5223L67.7903 74.1081L73.4472 68.4512Z" fill="#A9A5A9"/>
<path d="M73.4472 79.8154C73.8377 80.2059 74.4709 80.2059 74.8614 79.8154C75.2519 79.4248 75.2519 78.7917 74.8614 78.4011L69.2045 72.7443L67.7903 74.1585L73.4472 79.8154Z" fill="#A9A5A9"/>
<defs>
<filter id="filter0_f" x="12.3867" y="4.3877" width="143.614" height="143.614" filterUnits="userSpaceOnUse" color-interpolation-filters="sRGB">
<feFlood flood-opacity="0" result="BackgroundImageFix"/>
<feBlend mode="normal" in="SourceGraphic" in2="BackgroundImageFix" result="shape"/>
<feGaussianBlur stdDeviation="15" result="effect1_foregroundBlur"/>
</filter>
<filter id="filter1_f" x="0" y="0" width="143.614" height="143.614" filterUnits="userSpaceOnUse" color-interpolation-filters="sRGB">
<feFlood flood-opacity="0" result="BackgroundImageFix"/>
<feBlend mode="normal" in="SourceGraphic" in2="BackgroundImageFix" result="shape"/>
<feGaussianBlur stdDeviation="15" result="effect1_foregroundBlur"/>
</filter>
<linearGradient id="paint0_linear" x1="56.1293" y1="40.9034" x2="101.227" y2="104.775" gradientUnits="userSpaceOnUse">
<stop stop-color="#F1F1F1"/>
<stop offset="1" stop-color="#FCFCFC"/>
</linearGradient>
</defs>
</svg>
