<svg width="32" height="32" viewBox="0 0 32 32" fill="none" xmlns="http://www.w3.org/2000/svg">
<path d="M20.8155 5.5H11.1845C8.05002 5.5 5.5 8.05002 5.5 11.1845V20.8157C5.5 23.95 8.05002 26.5 11.1845 26.5H20.8157C23.95 26.5 26.5 23.95 26.5 20.8157V11.1845C26.5 8.05002 23.95 5.5 20.8155 5.5V5.5ZM16 21.742C12.8338 21.742 10.258 19.1662 10.258 16C10.258 12.8338 12.8338 10.258 16 10.258C19.1662 10.258 21.742 12.8338 21.742 16C21.742 19.1662 19.1662 21.742 16 21.742ZM21.8793 11.6121C20.9437 11.6121 20.1826 10.8511 20.1826 9.91543C20.1826 8.97976 20.9437 8.21857 21.8793 8.21857C22.815 8.21857 23.5762 8.97976 23.5762 9.91543C23.5762 10.8511 22.815 11.6121 21.8793 11.6121Z" fill="#9030F1"/>
<path d="M16 12.5C14.0702 12.5 12.5 14.0701 12.5 16C12.5 17.9298 14.0702 19.5 16 19.5C17.9299 19.5 19.5 17.9298 19.5 16C19.5 14.0701 17.9299 12.5 16 12.5Z" fill="#783DF4"/>
</svg>
