<svg width="32" height="32" viewBox="0 0 32 32" fill="none" xmlns="http://www.w3.org/2000/svg">
<path d="M13.2075 25C12.2561 25 11.2769 24.923 10.2918 24.7686C8.55681 24.4965 6.80048 23.5892 6.30349 23.3175L5 22.6051L6.41124 22.1411C7.95391 21.6341 8.89233 21.3195 10.054 20.8268C8.89082 20.2637 7.99436 19.2507 7.56283 17.9413L7.23453 16.9449L7.50375 16.986C7.24846 16.7288 7.04687 16.4677 6.89061 16.2303C6.33487 15.3865 6.04064 14.3554 6.10325 13.4718L6.16501 12.6021L6.68584 12.8038C6.46613 12.389 6.30735 11.946 6.21403 11.4817C5.9866 10.3495 6.17693 9.14655 6.75012 8.09466L7.20381 7.26207L7.81057 7.99063C9.72955 10.2951 12.1601 11.6621 15.0449 12.0623C14.927 11.2503 15.0153 10.4668 15.3076 9.76437C15.6478 8.94655 16.253 8.25306 17.0573 7.75874C17.9506 7.20988 19.0339 6.94393 20.1076 7.00987C21.2468 7.07984 22.281 7.50654 23.1025 8.24467C23.5036 8.14047 23.7992 8.02922 24.1987 7.87888C24.439 7.78844 24.7116 7.68575 25.0527 7.56829L26.3095 7.13538L25.4899 9.47543C25.5439 9.4709 25.5997 9.46704 25.6579 9.46452L27 9.40378L26.2068 10.4876C26.1613 10.5496 26.1497 10.5673 26.1336 10.5916C26.0696 10.6879 25.9901 10.8077 24.9013 12.2611C24.6287 12.6251 24.4926 13.0991 24.5179 13.5961C24.6144 15.4848 24.3826 17.1936 23.8286 18.6749C23.3045 20.0763 22.4925 21.2787 21.4153 22.2487C20.0823 23.4488 18.3825 24.2704 16.363 24.6906C15.3723 24.8966 14.3085 25 13.2075 25Z" fill="#9030F1"/>
</svg>
